Coordinates
version=1
nRows=13
nColumns=38
inDegrees=no

Units are S.I. units (second, meters, Newtons, ...)
If the header above contains a line with 'inDegrees', this indicates whether rotational values are in degrees (yes) or radians (no).

endheader
time	pelvis_tilt	pelvis_list	pelvis_rotation	pelvis_tx	pelvis_ty	pelvis_tz	hip_flexion_r	hip_adduction_r	hip_rotation_r	knee_angle_r	ankle_angle_r	subtalar_angle_r	mtp_angle_r	hip_flexion_l	hip_adduction_l	hip_rotation_l	knee_angle_l	ankle_angle_l	subtalar_angle_l	mtp_angle_l	lumbar_extension	lumbar_bending	lumbar_rotation	arm_flex_r	arm_add_r	arm_rot_r	elbow_flex_r	pro_sup_r	wrist_flex_r	wrist_dev_r	arm_flex_l	arm_add_l	arm_rot_l	elbow_flex_l	pro_sup_l	wrist_flex_l	wrist_dev_l
0.63	0.27587	1.44165	-1.71972	0.754713	1.2736	1.06636	-0.264389	0.0159279	-0.335179	0.116737	-0.0509245	0	0	0.181069	-0.0881493	-0.376743	0.610769	-0.0676149	0	0	-0.622837	0.0742185	-0.0824556	-0.130587	-0.496509	0.202552	0.993734	0.96117	0	0	-0.176834	-0.464949	-0.0271449	0.925989	1.29307	0	0
0.64	0.285083	1.44404	-1.73676	0.754758	1.26185	1.0654	-0.278573	0.0150579	-0.331216	0.105032	-0.0523649	0	0	0.183711	-0.0766684	-0.388358	0.537555	-0.0847805	0	0	-0.622659	0.0683871	-0.0779516	-0.129309	-0.500018	0.20295	0.997945	0.959891	0	0	-0.178513	-0.461792	-0.03052	0.924176	1.29062	0	0
0.65	0.292729	1.44704	-1.75179	0.754901	1.25004	1.06414	-0.291824	0.0138744	-0.328328	0.0951965	-0.0527397	0	0	0.185177	-0.063335	-0.392989	0.460124	-0.101875	0	0	-0.621818	0.0632243	-0.0727558	-0.129392	-0.503725	0.202033	1.0027	0.958192	0	0	-0.178586	-0.459499	-0.0304296	0.920996	1.28702	0	0
0.66	0.298014	1.45079	-1.76463	0.755089	1.23815	1.0626	-0.303381	0.0124935	-0.326217	0.0878277	-0.0512956	0	0	0.185457	-0.0486498	-0.389377	0.379283	-0.115033	0	0	-0.620221	0.0586655	-0.0656977	-0.131127	-0.50809	0.200007	1.00789	0.955958	0	0	-0.176406	-0.458539	-0.0248324	0.916184	1.28045	0	0
0.67	0.301885	1.45687	-1.775	0.755414	1.22621	1.06063	-0.312294	0.0117632	-0.324077	0.0816954	-0.0505134	0	0	0.18635	-0.0328876	-0.374795	0.295296	-0.138548	0	0	-0.616706	0.0531648	-0.0678437	-0.119982	-0.512455	0.215901	1.00402	0.95445	0	0	-0.186769	-0.450796	-0.0484254	0.918968	1.29457	0	0
0.68	0.296542	1.46381	-1.77551	0.755797	1.21423	1.05828	-0.319578	0.0119937	-0.322848	0.0778115	-0.0478523	0	0	0.18646	-0.0177527	-0.351801	0.210504	-0.153903	0	0	-0.612235	0.0507417	-0.0628594	-0.119395	-0.51637	0.217237	1.00673	0.953739	0	0	-0.188011	-0.44839	-0.0499894	0.91635	1.29431	0	0
0.69	0.282158	1.47158	-1.76601	0.756204	1.2021	1.0556	-0.324651	0.0135269	-0.323917	0.076978	-0.0436318	0	0	0.185347	-0.00380456	-0.319208	0.125374	-0.167965	0	0	-0.606743	0.0500121	-0.0573524	-0.120294	-0.519873	0.216616	1.01008	0.951962	0	0	-0.188352	-0.446562	-0.0491677	0.912581	1.29343	0	0
0.7	0.256717	1.48	-1.74505	0.756624	1.18982	1.05262	-0.330941	0.01694	-0.320412	0.0722332	-0.0423125	0	0	0.184719	0.00695999	-0.28497	0.0464843	-0.171832	0	0	-0.600838	0.0497099	-0.05407	-0.118819	-0.522231	0.218007	1.01138	0.955246	0	0	-0.192356	-0.443517	-0.0554535	0.911195	1.29829	0	0
0.71	0.22503	1.48756	-1.71788	0.757015	1.17741	1.04951	-0.337036	0.0197959	-0.319073	0.0708538	-0.04025	0	0	0.187743	0.0135989	-0.265583	0	-0.17427	0	0	-0.595961	0.0492867	-0.0502837	-0.118677	-0.525168	0.219019	1.01438	0.954614	0	0	-0.196157	-0.442115	-0.0587522	0.910548	1.29983	0	0
0.72	0.189034	1.49419	-1.68488	0.757542	1.16493	1.04642	-0.34324	0.0224287	-0.319351	0.0717119	-0.0379558	0	0	0.196516	0.0177997	-0.26046	0	-0.173573	0	0	-0.592064	0.0493151	-0.0474306	-0.118612	-0.527532	0.219984	1.01726	0.954171	0	0	-0.199068	-0.440767	-0.0620168	0.909578	1.3001	0	0
0.73	0.155028	1.50398	-1.65329	0.758189	1.15223	1.04298	-0.341606	0.0231437	-0.327634	0.084662	0.00827719	0	0	0.21065	0.0217662	-0.256632	0	-0.135214	0	0	-0.579529	0.0540887	-0.0284523	-0.142826	-0.533062	0.197034	1.03233	0.930599	0	0	-0.176784	-0.454124	0.00120427	0.886384	1.24091	0	0
0.74	0.123818	1.51341	-1.62447	0.758845	1.13935	1.03971	-0.339774	0.0227254	-0.334648	0.0983461	0.0307563	0	0	0.22498	0.0261427	-0.254974	0	-0.112286	0	0	-0.568752	0.054622	-0.0245061	-0.147916	-0.529984	0.186411	1.03309	0.91943	0	0	-0.174474	-0.454777	0.012896	0.87589	1.21249	0	0
0.75	0.0828794	1.51178	-1.58643	0.759491	1.12668	1.03753	-0.354197	0.0236257	-0.329143	0.0986047	0.0138874	0	0	0.226583	0.0305457	-0.256603	0	-0.124632	0	0	-0.577408	0.0519496	-0.0242353	-0.142307	-0.534215	0.196932	1.0367	0.928363	0	0	-0.180334	-0.454653	0.000136473	0.882356	1.23626	0	0
